<svg id="visual" viewBox="0 0 900 300" width="900" height="300" xmlns="http://www.w3.org/2000/svg" xmlns:xlink="http://www.w3.org/1999/xlink" version="1.1"><path d="M0 85L7.8 82C15.7 79 31.3 73 47.2 73C63 73 79 79 94.8 81.8C110.7 84.7 126.3 84.3 142 80.5C157.7 76.7 173.3 69.3 189.2 65C205 60.7 221 59.3 236.8 59.3C252.7 59.3 268.3 60.7 284.2 65C300 69.3 316 76.7 331.8 77.2C347.7 77.7 363.3 71.3 379 71.5C394.7 71.7 410.3 78.3 426.2 79.7C442 81 458 77 473.8 76.5C489.7 76 505.3 79 521 80C536.7 81 552.3 80 568.2 77.3C584 74.7 600 70.3 615.8 66.3C631.7 62.3 647.3 58.7 663.2 58C679 57.3 695 59.7 710.8 60C726.7 60.3 742.3 58.7 758 59.2C773.7 59.7 789.3 62.3 805.2 64.7C821 67 837 69 852.8 71C868.7 73 884.3 75 892.2 76L900 77L900 0L892.2 0C884.3 0 868.7 0 852.8 0C837 0 821 0 805.2 0C789.3 0 773.7 0 758 0C742.3 0 726.7 0 710.8 0C695 0 679 0 663.2 0C647.3 0 631.7 0 615.8 0C600 0 584 0 568.2 0C552.3 0 536.7 0 521 0C505.3 0 489.7 0 473.8 0C458 0 442 0 426.2 0C410.3 0 394.7 0 379 0C363.3 0 347.7 0 331.8 0C316 0 300 0 284.2 0C268.3 0 252.7 0 236.8 0C221 0 205 0 189.2 0C173.3 0 157.7 0 142 0C126.3 0 110.7 0 94.8 0C79 0 63 0 47.2 0C31.3 0 15.7 0 7.8 0L0 0Z" fill="#0ed5c9"></path><path d="M0 66L7.8 64.3C15.7 62.7 31.3 59.3 47.2 57.5C63 55.7 79 55.3 94.8 53.5C110.7 51.7 126.3 48.3 142 47C157.7 45.7 173.3 46.3 189.2 50.8C205 55.3 221 63.7 236.8 63.3C252.7 63 268.3 54 284.2 51.2C300 48.3 316 51.7 331.8 53.2C347.7 54.7 363.3 54.3 379 53.3C394.7 52.3 410.3 50.7 426.2 53.5C442 56.3 458 63.7 473.8 65C489.7 66.3 505.3 61.7 521 58.7C536.7 55.7 552.3 54.3 568.2 56.2C584 58 600 63 615.8 64.2C631.7 65.3 647.3 62.7 663.2 58.8C679 55 695 50 710.8 51.2C726.7 52.3 742.3 59.7 758 61.7C773.7 63.7 789.3 60.3 805.2 57.3C821 54.3 837 51.7 852.8 53.8C868.7 56 884.3 63 892.2 66.5L900 70L900 0L892.2 0C884.3 0 868.7 0 852.8 0C837 0 821 0 805.2 0C789.3 0 773.7 0 758 0C742.3 0 726.7 0 710.8 0C695 0 679 0 663.2 0C647.3 0 631.7 0 615.8 0C600 0 584 0 568.2 0C552.3 0 536.7 0 521 0C505.3 0 489.7 0 473.8 0C458 0 442 0 426.2 0C410.3 0 394.7 0 379 0C363.3 0 347.7 0 331.8 0C316 0 300 0 284.2 0C268.3 0 252.7 0 236.8 0C221 0 205 0 189.2 0C173.3 0 157.7 0 142 0C126.3 0 110.7 0 94.8 0C79 0 63 0 47.2 0C31.3 0 15.7 0 7.8 0L0 0Z" fill="#41ce98"></path><path d="M0 59L7.8 58C15.7 57 31.3 55 47.2 51.3C63 47.7 79 42.3 94.8 42.8C110.7 43.3 126.3 49.7 142 49.7C157.7 49.7 173.3 43.3 189.2 42.8C205 42.3 221 47.7 236.8 48.5C252.7 49.3 268.3 45.7 284.2 43.8C300 42 316 42 331.8 41.3C347.7 40.7 363.3 39.3 379 39.3C394.7 39.3 410.3 40.7 426.2 41.7C442 42.7 458 43.3 473.8 42C489.7 40.7 505.3 37.3 521 38.5C536.7 39.7 552.3 45.3 568.2 46.8C584 48.3 600 45.7 615.8 47C631.7 48.3 647.3 53.7 663.2 54.7C679 55.7 695 52.3 710.8 50.5C726.7 48.7 742.3 48.3 758 47.5C773.7 46.7 789.3 45.3 805.2 43.8C821 42.3 837 40.7 852.8 39C868.7 37.3 884.3 35.7 892.2 34.8L900 34L900 0L892.2 0C884.3 0 868.7 0 852.8 0C837 0 821 0 805.2 0C789.3 0 773.7 0 758 0C742.3 0 726.7 0 710.8 0C695 0 679 0 663.2 0C647.3 0 631.7 0 615.8 0C600 0 584 0 568.2 0C552.3 0 536.7 0 521 0C505.3 0 489.7 0 473.8 0C458 0 442 0 426.2 0C410.3 0 394.7 0 379 0C363.3 0 347.7 0 331.8 0C316 0 300 0 284.2 0C268.3 0 252.7 0 236.8 0C221 0 205 0 189.2 0C173.3 0 157.7 0 142 0C126.3 0 110.7 0 94.8 0C79 0 63 0 47.2 0C31.3 0 15.7 0 7.8 0L0 0Z" fill="#74c360"></path><path d="M0 28L7.8 27.8C15.7 27.7 31.3 27.3 47.2 30.2C63 33 79 39 94.8 41.7C110.7 44.3 126.3 43.7 142 40C157.7 36.3 173.3 29.7 189.2 27.2C205 24.7 221 26.3 236.8 26.5C252.7 26.7 268.3 25.3 284.2 25.7C300 26 316 28 331.8 30.7C347.7 33.3 363.3 36.7 379 38C394.7 39.3 410.3 38.7 426.2 37.8C442 37 458 36 473.8 34.2C489.7 32.3 505.3 29.7 521 30.3C536.7 31 552.3 35 568.2 37C584 39 600 39 615.8 38C631.7 37 647.3 35 663.2 33.7C679 32.3 695 31.7 710.8 30C726.7 28.3 742.3 25.7 758 24.7C773.7 23.7 789.3 24.3 805.2 24.7C821 25 837 25 852.8 26.7C868.7 28.3 884.3 31.7 892.2 33.3L900 35L900 0L892.2 0C884.3 0 868.7 0 852.8 0C837 0 821 0 805.2 0C789.3 0 773.7 0 758 0C742.3 0 726.7 0 710.8 0C695 0 679 0 663.2 0C647.3 0 631.7 0 615.8 0C600 0 584 0 568.2 0C552.3 0 536.7 0 521 0C505.3 0 489.7 0 473.8 0C458 0 442 0 426.2 0C410.3 0 394.7 0 379 0C363.3 0 347.7 0 331.8 0C316 0 300 0 284.2 0C268.3 0 252.7 0 236.8 0C221 0 205 0 189.2 0C173.3 0 157.7 0 142 0C126.3 0 110.7 0 94.8 0C79 0 63 0 47.2 0C31.3 0 15.7 0 7.8 0L0 0Z" fill="#a2b327"></path><path d="M0 18L7.8 17.7C15.7 17.3 31.3 16.7 47.2 17.8C63 19 79 22 94.8 21.5C110.7 21 126.3 17 142 18.2C157.7 19.3 173.3 25.7 189.2 28.7C205 31.7 221 31.3 236.8 28.2C252.7 25 268.3 19 284.2 16.8C300 14.7 316 16.3 331.8 18.7C347.7 21 363.3 24 379 23.5C394.7 23 410.3 19 426.2 19C442 19 458 23 473.8 24C489.7 25 505.3 23 521 22.7C536.7 22.3 552.3 23.7 568.2 24.7C584 25.7 600 26.3 615.8 27.3C631.7 28.3 647.3 29.7 663.2 28.7C679 27.7 695 24.3 710.8 21.7C726.7 19 742.3 17 758 18.2C773.7 19.3 789.3 23.7 805.2 24C821 24.3 837 20.7 852.8 19.5C868.7 18.3 884.3 19.7 892.2 20.3L900 21L900 0L892.2 0C884.3 0 868.7 0 852.8 0C837 0 821 0 805.2 0C789.3 0 773.7 0 758 0C742.3 0 726.7 0 710.8 0C695 0 679 0 663.2 0C647.3 0 631.7 0 615.8 0C600 0 584 0 568.2 0C552.3 0 536.7 0 521 0C505.3 0 489.7 0 473.8 0C458 0 442 0 426.2 0C410.3 0 394.7 0 379 0C363.3 0 347.7 0 331.8 0C316 0 300 0 284.2 0C268.3 0 252.7 0 236.8 0C221 0 205 0 189.2 0C173.3 0 157.7 0 142 0C126.3 0 110.7 0 94.8 0C79 0 63 0 47.2 0C31.3 0 15.7 0 7.8 0L0 0Z" fill="#ce9a00"></path><path d="M0 10L7.8 11.8C15.7 13.7 31.3 17.3 47.2 18.2C63 19 79 17 94.8 16.8C110.7 16.7 126.3 18.3 142 18.5C157.7 18.7 173.3 17.3 189.2 14.3C205 11.3 221 6.7 236.8 4.3C252.7 2 268.3 2 284.2 4.2C300 6.3 316 10.7 331.8 11C347.7 11.3 363.3 7.7 379 6.3C394.7 5 410.3 6 426.2 8.2C442 10.3 458 13.7 473.8 14.8C489.7 16 505.3 15 521 13.7C536.7 12.3 552.3 10.7 568.2 10C584 9.3 600 9.7 615.8 10.7C631.7 11.7 647.3 13.3 663.2 13.2C679 13 695 11 710.8 10.8C726.7 10.7 742.3 12.3 758 14.3C773.7 16.3 789.3 18.7 805.2 19.5C821 20.3 837 19.7 852.8 18.5C868.7 17.3 884.3 15.7 892.2 14.8L900 14L900 0L892.2 0C884.3 0 868.7 0 852.8 0C837 0 821 0 805.2 0C789.3 0 773.7 0 758 0C742.3 0 726.7 0 710.8 0C695 0 679 0 663.2 0C647.3 0 631.7 0 615.8 0C600 0 584 0 568.2 0C552.3 0 536.7 0 521 0C505.3 0 489.7 0 473.8 0C458 0 442 0 426.2 0C410.3 0 394.7 0 379 0C363.3 0 347.7 0 331.8 0C316 0 300 0 284.2 0C268.3 0 252.7 0 236.8 0C221 0 205 0 189.2 0C173.3 0 157.7 0 142 0C126.3 0 110.7 0 94.8 0C79 0 63 0 47.2 0C31.3 0 15.7 0 7.8 0L0 0Z" fill="#f7770f"></path></svg>